<svg width="617" height="495" viewBox="0 0 617 495" fill="none" xmlns="http://www.w3.org/2000/svg">
<rect x="243.841" y="56.6396" width="229.241" height="379.349" rx="114.621" transform="rotate(40 243.841 56.6396)" fill="#ECD3A9"/>
<rect x="441.039" width="229.241" height="420.98" rx="114.621" transform="rotate(40 441.039 0)" fill="#ECD3A9"/>
<path d="M385.491 148.294C384.75 139.542 391.654 132.029 400.437 132.029H485.514C493.289 132.029 499.775 137.969 500.457 145.714L506.909 219.084C506.986 219.958 506.986 220.838 506.909 221.712L500.457 295.082C499.775 302.827 493.289 308.768 485.514 308.768H400.437C391.654 308.768 384.75 301.254 385.491 292.502L391.49 221.664C391.561 220.822 391.561 219.975 391.49 219.132L385.491 148.294Z" fill="url(#paint0_linear_114_226)"/>
<path d="M406.565 132.029C406.565 127.577 410.174 123.969 414.625 123.969H425.563C430.015 123.969 433.623 127.577 433.623 132.029H406.565Z" fill="#4A456A"/>
<path d="M450.318 132.029C450.318 127.577 453.927 123.969 458.378 123.969H469.316C473.768 123.969 477.376 127.577 477.376 132.029H450.318Z" fill="#4A456A"/>
<rect x="414.625" y="160.238" width="4.60558" height="29.3606" rx="2.30279" fill="#4A456A"/>
<rect x="402.536" y="177.509" width="5.18128" height="29.3606" rx="2.59064" transform="rotate(-90 402.536 177.509)" fill="#4A456A"/>
<rect x="482.514" y="162.541" width="5.18128" height="29.3606" rx="2.59064" transform="rotate(70 482.514 162.541)" fill="#4A456A"/>
<path d="M390.158 218.959H507.889L502.132 296.648H384.401L390.158 218.959Z" fill="url(#paint1_linear_114_226)"/>
<path d="M439.668 233.927H424.7L420.958 269.908L431.032 265.303L424.7 289.194L443.122 251.198L431.032 256.667L439.668 233.927Z" fill="#4A456A"/>
<path d="M455.5 190.462C455.5 193.482 452.734 195.931 450.031 195.931C447.329 195.931 445.138 193.482 445.138 190.462C445.138 187.441 447.329 184.993 450.031 184.993C452.734 184.993 455.5 187.441 455.5 190.462Z" fill="#4A456A"/>
<ellipse cx="306.104" cy="329.493" rx="105.065" ry="20.7251" fill="#9487E8"/>
<ellipse cx="221.764" cy="308.768" rx="141.046" ry="19.5737" fill="#9487E8"/>
<ellipse cx="445.711" cy="347.628" rx="34.5419" ry="7.77192" fill="#879CE8"/>
<ellipse cx="362.522" cy="378.14" rx="27.9214" ry="6.04483" fill="#879CE8"/>
<path d="M445.844 187.741C447.678 186.22 450.395 186.466 451.925 188.291C453.463 190.123 453.224 192.854 451.392 194.391L420.751 220.102L415.488 212.914L445.844 187.741Z" fill="#ED7650"/>
<path d="M415.488 212.914L422.684 218.095L355.898 332.612L347.556 332.612L415.488 212.914Z" fill="#ED7650"/>
<path d="M414.913 213.778L413.761 216.08L422.397 218.959L414.913 213.778Z" fill="#F39A7E"/>
<path d="M418.943 210.035L416.352 212.05L422.397 218.959L418.943 210.035Z" fill="#F39A7E"/>
<path d="M453.772 190.462C453.772 193.164 452.333 193.628 449.167 196.219C446.256 197.946 444.561 193.164 444.561 190.462C443.986 189.31 447.696 185.281 448.879 185.568C450.574 185.568 453.772 187.759 453.772 190.462Z" fill="#ED7650"/>
<path d="M103.014 232.102L119.4 197.741L112.118 194.727C105.644 206.985 92.5751 235.236 92.0895 238.13C91.604 241.023 95.5287 243.756 97.5517 244.761L131.539 302.028L112.118 306.248H135.18C139.024 309.061 148.168 315.17 153.994 317.099C159.821 319.028 162.896 316.295 163.705 314.687C162.491 314.888 158.85 315.17 153.994 314.687C149.139 314.205 144.284 310.87 142.463 309.262C143.272 309.463 145.983 309.744 150.353 309.262C154.723 308.78 164.312 311.472 168.56 312.879L150.353 303.837H163.705C156.22 303.435 141.006 301.546 140.035 297.206C139.064 292.866 136.394 293.79 135.18 294.795C125.267 278.519 105.442 245.002 105.442 241.144C105.442 237.286 103.823 233.508 103.014 232.102Z" fill="#4B4096"/>
<path d="M16.185 125.403C14.7284 121.545 28.1209 119.375 34.9992 118.772C82.1135 138.446 170.174 182.05 178.765 181.342C179.16 179.59 179.444 179.091 179.444 180.862C179.444 181.148 179.212 181.305 178.765 181.342C177.871 185.315 176.409 195.735 176.409 200.755C176.409 206.608 182.478 241.747 183.692 229.088C185.58 209.395 204.732 201.957 215.251 200.755C223.546 200.755 241.956 202.443 249.238 209.195C256.521 215.946 257.937 225.27 257.735 229.088L249.238 238.733L238.314 232.704L231.638 229.088C219.5 221.251 208.575 221.251 206.755 229.69C205.064 237.527 203.356 250.307 194.617 253.2C183.692 256.817 178.23 254.406 171.554 250.789C160.365 244.727 144.041 217.031 137.567 200.755C133.319 202.162 123.244 204.131 116.932 200.755C110.62 197.379 108.638 184.077 108.435 177.848C96.4994 177.446 72.9918 175.437 74.4483 170.615C75.9049 165.792 80.3151 164.988 82.3382 165.189L65.3447 162.175C50.5766 160.166 20.5547 155.062 18.6126 150.722C16.6705 146.381 21.4449 146.1 24.0748 146.502C20.4334 144.894 13.7574 140.715 16.185 136.857C18.6127 132.999 31.7624 132.436 38.0338 132.637C31.3578 131.833 17.6416 129.261 16.185 125.403Z" fill="#ED7650"/>
<path d="M181.871 185.082C186.241 176.884 188.547 160.769 187.94 154.339C186.726 147.507 179.686 132.035 161.236 124.801C142.786 117.567 88.4069 108.927 63.5236 105.511C51.9923 102.497 27.3517 98.277 21.0399 105.511C13.15 114.553 64.1305 129.623 55.6338 128.418C48.8364 127.453 54.7579 134.781 56.2407 136.254C58.0614 138.063 84.1585 155.183 96.2967 170.615C108.435 186.047 129.677 197.741 146.063 197.741C156.179 196.938 177.501 193.281 181.871 185.082Z" fill="#F09A7E"/>
<path d="M257.735 229.088L249.238 238.733L284.439 275.504C285.045 274.902 285.895 272.852 284.439 269.476C282.982 266.1 266.029 240.943 257.735 229.088Z" fill="#F2B34A"/>
<path d="M110.256 236.924L126.643 202.564H119.36C112.886 214.821 99.8173 240.059 99.3317 242.953C98.8462 245.846 102.771 248.579 104.794 249.584L138.781 306.851L119.36 311.071H142.422C146.266 313.884 155.41 319.992 161.237 321.921C167.063 323.85 170.138 321.118 170.947 319.51C169.733 319.711 166.092 319.992 161.237 319.51C156.381 319.028 151.526 315.692 149.705 314.085C150.514 314.286 153.225 314.567 157.595 314.085C161.965 313.602 171.554 316.295 175.802 317.702L157.595 308.659H170.947C163.462 308.257 148.249 306.369 147.278 302.028C146.307 297.688 143.636 298.612 142.422 299.617C132.509 283.341 112.684 249.825 112.684 245.967C112.684 242.109 111.065 238.331 110.256 236.924Z" fill="#6153BE"/>
<path d="M251.059 228.485C253.487 227.52 253.689 225.672 253.487 224.868L245.597 225.471C246.406 227.078 248.632 229.449 251.059 228.485Z" fill="#4C4096"/>
<path d="M243.776 225.471H245.597M245.597 225.471L253.487 224.868C253.689 225.672 253.487 227.52 251.059 228.485C248.632 229.449 246.406 227.078 245.597 225.471Z" stroke="#4C4096" stroke-linecap="round" stroke-linejoin="round"/>
<path d="M113.291 138.063C107.424 141.881 98.4825 148.672 109.65 145.297C120.817 141.921 122.395 141.881 121.788 142.282C119.562 144.091 115.476 148.311 116.933 150.722C118.389 153.133 130.891 144.895 136.961 140.474C136.354 142.282 135.504 146.382 136.961 148.311C138.417 150.24 147.278 142.282 151.526 138.063" stroke="#ED7650" stroke-width="3" stroke-linecap="round" stroke-linejoin="round"/>
<path d="M300.061 333.523H364.827" stroke="#BCB3F5" stroke-width="10" stroke-linecap="round"/>
<path d="M214.282 300.708H306.401" stroke="#BCB3F5" stroke-width="10" stroke-linecap="round"/>
<path d="M149.803 319.706H201.04" stroke="#BCB3F5" stroke-width="10" stroke-linecap="round"/>
<defs>
<linearGradient id="paint0_linear_114_226" x1="499.253" y1="191.038" x2="384.113" y2="193.34" gradientUnits="userSpaceOnUse">
<stop stop-color="#6E65AA"/>
<stop offset="0.520178" stop-color="#B1A8EA"/>
<stop offset="1" stop-color="#6E65AA"/>
</linearGradient>
<linearGradient id="paint1_linear_114_226" x1="383.538" y1="250.319" x2="500.17" y2="250.319" gradientUnits="userSpaceOnUse">
<stop stop-color="#D18E40"/>
<stop offset="0.520833" stop-color="#F2B34A"/>
<stop offset="1" stop-color="#D18E40"/>
</linearGradient>
</defs>
</svg>
