<svg width="273" height="273" viewBox="0 0 273 273" fill="none" xmlns="http://www.w3.org/2000/svg">
<g filter="url(#filter0_d_40_156)">
<g filter="url(#filter1_i_40_156)">
<rect x="4.625" y="0.3125" width="264.312" height="264.312" rx="50" fill="white"/>
</g>
<g filter="url(#filter2_i_40_156)">
<rect x="18.6841" y="14.3718" width="237.6" height="237.6" rx="40" fill="url(#paint0_radial_40_156)"/>
</g>
<g filter="url(#filter3_d_40_156)">
<path fill-rule="evenodd" clip-rule="evenodd" d="M29.9316 60.6192C29.9316 41.2892 45.6017 25.6191 64.9316 25.6191L210.037 25.6191C229.367 25.6191 245.037 41.2892 245.037 60.6191L245.037 204.319C245.037 223.649 229.367 239.319 210.037 239.319L64.9316 239.319C45.6017 239.319 29.9316 223.649 29.9316 204.319L29.9316 60.6192ZM170.526 183.082V111.414H192.121V183.082L170.526 183.082ZM181.324 97.2422C177.275 97.2422 174.08 96.2974 171.741 94.4078C169.491 92.4283 168.367 89.639 168.367 86.0398C168.367 82.8006 169.536 80.1462 171.876 78.0767C174.215 76.0072 177.365 74.9724 181.324 74.9724C185.373 74.9724 188.522 75.9622 190.771 77.9417C193.021 79.8313 194.146 82.5307 194.146 86.0398C194.146 89.369 192.976 92.0684 190.636 94.1379C188.387 96.2074 185.283 97.2422 181.324 97.2422ZM82.6113 183.082L82.6113 88.6042H105.556L105.556 162.837H147.666V183.082H82.6113ZM53.3442 75.7644C55.5037 76.9454 58.0175 77.5359 60.8856 77.5359C63.3825 77.5359 65.6432 76.996 67.6677 75.9163C69.726 74.8365 71.3456 73.3856 72.5266 71.5636C73.7413 69.7078 74.3487 67.5989 74.3487 65.2369C74.3487 63.6848 74.045 62.2339 73.4376 60.8842C72.8303 59.5008 71.9867 58.3029 70.907 57.2907C69.8272 56.2784 68.5956 55.4855 67.2122 54.9119C66.2844 54.5272 65.3111 54.2715 64.2922 54.1448L73.3364 44.435L71.7674 41.297H50.0038V48.5346L61.3566 48.7679L53.8504 56.9364L55.7231 61.9471C56.3979 61.6097 57.0559 61.3397 57.697 61.1373C58.3381 60.9348 58.9454 60.783 59.519 60.6818C60.0927 60.5468 60.6325 60.4793 61.1387 60.4793C62.2521 60.4793 63.1969 60.6649 63.973 61.0361C64.7828 61.4072 65.3902 61.964 65.7951 62.7063C66.2337 63.4149 66.453 64.2922 66.453 65.3382C66.453 66.3167 66.2 67.194 65.6938 67.97C65.2214 68.7461 64.5803 69.3535 63.7705 69.7921C62.9945 70.197 62.134 70.3995 61.1893 70.3995C60.2445 70.3995 59.3335 70.2476 58.4562 69.9439C57.6126 69.6065 56.7859 69.0835 55.9761 68.3749C55.2001 67.6664 54.4409 66.7216 53.6985 65.5406L47.5238 69.539C49.2783 72.4746 51.2185 74.5497 53.3442 75.7644Z" fill="white"/>
</g>
</g>
<defs>
<filter id="filter0_d_40_156" x="0.625" y="0.3125" width="272.312" height="272.312" filterUnits="userSpaceOnUse" color-interpolation-filters="sRGB">
<feFlood flood-opacity="0" result="BackgroundImageFix"/>
<feColorMatrix in="SourceAlpha" type="matrix" values="0 0 0 0 0 0 0 0 0 0 0 0 0 0 0 0 0 0 127 0" result="hardAlpha"/>
<feOffset dy="4"/>
<feGaussianBlur stdDeviation="2"/>
<feComposite in2="hardAlpha" operator="out"/>
<feColorMatrix type="matrix" values="0 0 0 0 0 0 0 0 0 0 0 0 0 0 0 0 0 0 1 0"/>
<feBlend mode="normal" in2="BackgroundImageFix" result="effect1_dropShadow_40_156"/>
<feBlend mode="normal" in="SourceGraphic" in2="effect1_dropShadow_40_156" result="shape"/>
</filter>
<filter id="filter1_i_40_156" x="4.625" y="0.3125" width="264.312" height="268.312" filterUnits="userSpaceOnUse" color-interpolation-filters="sRGB">
<feFlood flood-opacity="0" result="BackgroundImageFix"/>
<feBlend mode="normal" in="SourceGraphic" in2="BackgroundImageFix" result="shape"/>
<feColorMatrix in="SourceAlpha" type="matrix" values="0 0 0 0 0 0 0 0 0 0 0 0 0 0 0 0 0 0 127 0" result="hardAlpha"/>
<feOffset dy="4"/>
<feGaussianBlur stdDeviation="2"/>
<feComposite in2="hardAlpha" operator="arithmetic" k2="-1" k3="1"/>
<feColorMatrix type="matrix" values="0 0 0 0 0 0 0 0 0 0 0 0 0 0 0 0 0 0 0.25 0"/>
<feBlend mode="normal" in2="shape" result="effect1_innerShadow_40_156"/>
</filter>
<filter id="filter2_i_40_156" x="18.6841" y="14.3718" width="237.6" height="241.6" filterUnits="userSpaceOnUse" color-interpolation-filters="sRGB">
<feFlood flood-opacity="0" result="BackgroundImageFix"/>
<feBlend mode="normal" in="SourceGraphic" in2="BackgroundImageFix" result="shape"/>
<feColorMatrix in="SourceAlpha" type="matrix" values="0 0 0 0 0 0 0 0 0 0 0 0 0 0 0 0 0 0 127 0" result="hardAlpha"/>
<feOffset dy="4"/>
<feGaussianBlur stdDeviation="2"/>
<feComposite in2="hardAlpha" operator="arithmetic" k2="-1" k3="1"/>
<feColorMatrix type="matrix" values="0 0 0 0 0 0 0 0 0 0 0 0 0 0 0 0 0 0 0.5 0"/>
<feBlend mode="normal" in2="shape" result="effect1_innerShadow_40_156"/>
</filter>
<filter id="filter3_d_40_156" x="25.9316" y="25.6191" width="223.105" height="221.699" filterUnits="userSpaceOnUse" color-interpolation-filters="sRGB">
<feFlood flood-opacity="0" result="BackgroundImageFix"/>
<feColorMatrix in="SourceAlpha" type="matrix" values="0 0 0 0 0 0 0 0 0 0 0 0 0 0 0 0 0 0 127 0" result="hardAlpha"/>
<feOffset dy="4"/>
<feGaussianBlur stdDeviation="2"/>
<feComposite in2="hardAlpha" operator="out"/>
<feColorMatrix type="matrix" values="0 0 0 0 0 0 0 0 0 0 0 0 0 0 0 0 0 0 0.5 0"/>
<feBlend mode="normal" in2="BackgroundImageFix" result="effect1_dropShadow_40_156"/>
<feBlend mode="normal" in="SourceGraphic" in2="effect1_dropShadow_40_156" result="shape"/>
</filter>
<radialGradient id="paint0_radial_40_156" cx="0" cy="0" r="1" gradientUnits="userSpaceOnUse" gradientTransform="translate(137.484 133.172) rotate(90) scale(118.8)">
<stop stop-color="#FFD058"/>
<stop offset="1" stop-color="#DA8030"/>
</radialGradient>
</defs>
</svg>
