<svg width="273" height="273" viewBox="0 0 273 273" fill="none" xmlns="http://www.w3.org/2000/svg">
<g filter="url(#filter0_d_33_232)">
<g filter="url(#filter1_i_33_232)">
<rect x="4.625" y="0.625" width="264.312" height="264.312" rx="50" fill="white"/>
</g>
<g filter="url(#filter2_i_33_232)">
<rect x="18.6841" y="14.6843" width="237.6" height="237.6" rx="40" fill="url(#paint0_radial_33_232)"/>
</g>
<g filter="url(#filter3_d_33_232)">
<path fill-rule="evenodd" clip-rule="evenodd" d="M29.9316 60.9317C29.9316 41.6017 45.6017 25.9316 64.9316 25.9316L210.037 25.9316C229.367 25.9316 245.037 41.6017 245.037 60.9316L245.037 204.631C245.037 223.961 229.367 239.631 210.037 239.631L64.9316 239.631C45.6017 239.631 29.9316 223.961 29.9316 204.631L29.9316 60.9317ZM170.526 183.394V111.726H192.121V183.394L170.526 183.394ZM181.324 97.5547C177.275 97.5547 174.08 96.6099 171.741 94.7203C169.491 92.7408 168.367 89.9515 168.367 86.3523C168.367 83.1131 169.536 80.4587 171.876 78.3892C174.215 76.3197 177.365 75.2849 181.324 75.2849C185.373 75.2849 188.522 76.2747 190.771 78.2542C193.021 80.1438 194.146 82.8432 194.146 86.3523C194.146 89.6815 192.976 92.3809 190.636 94.4504C188.387 96.5199 185.283 97.5547 181.324 97.5547ZM82.6113 183.394L82.6113 88.9167H105.556L105.556 163.149H147.666V183.394H82.6113ZM53.3442 76.0769C55.5037 77.2579 58.0175 77.8484 60.8856 77.8484C63.3825 77.8484 65.6432 77.3085 67.6677 76.2288C69.726 75.149 71.3456 73.6981 72.5266 71.8761C73.7413 70.0203 74.3487 67.9114 74.3487 65.5494C74.3487 63.9973 74.045 62.5464 73.4376 61.1967C72.8303 59.8133 71.9867 58.6154 70.907 57.6032C69.8272 56.5909 68.5956 55.798 67.2122 55.2244C66.2844 54.8397 65.3111 54.584 64.2922 54.4573L73.3364 44.7475L71.7674 41.6095H50.0038V48.8471L61.3566 49.0804L53.8504 57.2489L55.7231 62.2596C56.3979 61.9222 57.0559 61.6522 57.697 61.4498C58.3381 61.2473 58.9454 61.0955 59.519 60.9943C60.0927 60.8593 60.6325 60.7918 61.1387 60.7918C62.2521 60.7918 63.1969 60.9774 63.973 61.3486C64.7828 61.7197 65.3902 62.2765 65.7951 63.0188C66.2337 63.7274 66.453 64.6047 66.453 65.6507C66.453 66.6292 66.2 67.5065 65.6938 68.2825C65.2214 69.0586 64.5803 69.666 63.7705 70.1046C62.9945 70.5095 62.134 70.712 61.1893 70.712C60.2445 70.712 59.3335 70.5601 58.4562 70.2564C57.6126 69.919 56.7859 69.396 55.9761 68.6874C55.2001 67.9789 54.4409 67.0341 53.6985 65.8531L47.5238 69.8515C49.2783 72.7871 51.2185 74.8622 53.3442 76.0769Z" fill="white"/>
</g>
</g>
<defs>
<filter id="filter0_d_33_232" x="0.625" y="0.625" width="272.312" height="272.312" filterUnits="userSpaceOnUse" color-interpolation-filters="sRGB">
<feFlood flood-opacity="0" result="BackgroundImageFix"/>
<feColorMatrix in="SourceAlpha" type="matrix" values="0 0 0 0 0 0 0 0 0 0 0 0 0 0 0 0 0 0 127 0" result="hardAlpha"/>
<feOffset dy="4"/>
<feGaussianBlur stdDeviation="2"/>
<feComposite in2="hardAlpha" operator="out"/>
<feColorMatrix type="matrix" values="0 0 0 0 0 0 0 0 0 0 0 0 0 0 0 0 0 0 1 0"/>
<feBlend mode="normal" in2="BackgroundImageFix" result="effect1_dropShadow_33_232"/>
<feBlend mode="normal" in="SourceGraphic" in2="effect1_dropShadow_33_232" result="shape"/>
</filter>
<filter id="filter1_i_33_232" x="4.625" y="0.625" width="264.312" height="268.312" filterUnits="userSpaceOnUse" color-interpolation-filters="sRGB">
<feFlood flood-opacity="0" result="BackgroundImageFix"/>
<feBlend mode="normal" in="SourceGraphic" in2="BackgroundImageFix" result="shape"/>
<feColorMatrix in="SourceAlpha" type="matrix" values="0 0 0 0 0 0 0 0 0 0 0 0 0 0 0 0 0 0 127 0" result="hardAlpha"/>
<feOffset dy="4"/>
<feGaussianBlur stdDeviation="2"/>
<feComposite in2="hardAlpha" operator="arithmetic" k2="-1" k3="1"/>
<feColorMatrix type="matrix" values="0 0 0 0 0 0 0 0 0 0 0 0 0 0 0 0 0 0 0.25 0"/>
<feBlend mode="normal" in2="shape" result="effect1_innerShadow_33_232"/>
</filter>
<filter id="filter2_i_33_232" x="18.6841" y="14.6843" width="237.6" height="241.6" filterUnits="userSpaceOnUse" color-interpolation-filters="sRGB">
<feFlood flood-opacity="0" result="BackgroundImageFix"/>
<feBlend mode="normal" in="SourceGraphic" in2="BackgroundImageFix" result="shape"/>
<feColorMatrix in="SourceAlpha" type="matrix" values="0 0 0 0 0 0 0 0 0 0 0 0 0 0 0 0 0 0 127 0" result="hardAlpha"/>
<feOffset dy="4"/>
<feGaussianBlur stdDeviation="2"/>
<feComposite in2="hardAlpha" operator="arithmetic" k2="-1" k3="1"/>
<feColorMatrix type="matrix" values="0 0 0 0 0 0 0 0 0 0 0 0 0 0 0 0 0 0 0.5 0"/>
<feBlend mode="normal" in2="shape" result="effect1_innerShadow_33_232"/>
</filter>
<filter id="filter3_d_33_232" x="25.9316" y="25.9316" width="223.105" height="221.699" filterUnits="userSpaceOnUse" color-interpolation-filters="sRGB">
<feFlood flood-opacity="0" result="BackgroundImageFix"/>
<feColorMatrix in="SourceAlpha" type="matrix" values="0 0 0 0 0 0 0 0 0 0 0 0 0 0 0 0 0 0 127 0" result="hardAlpha"/>
<feOffset dy="4"/>
<feGaussianBlur stdDeviation="2"/>
<feComposite in2="hardAlpha" operator="out"/>
<feColorMatrix type="matrix" values="0 0 0 0 0 0 0 0 0 0 0 0 0 0 0 0 0 0 0.5 0"/>
<feBlend mode="normal" in2="BackgroundImageFix" result="effect1_dropShadow_33_232"/>
<feBlend mode="normal" in="SourceGraphic" in2="effect1_dropShadow_33_232" result="shape"/>
</filter>
<radialGradient id="paint0_radial_33_232" cx="0" cy="0" r="1" gradientUnits="userSpaceOnUse" gradientTransform="translate(137.484 133.484) rotate(90) scale(118.8)">
<stop stop-color="#FBF447"/>
<stop offset="1" stop-color="#9D9600"/>
</radialGradient>
</defs>
</svg>
