<svg width="164" height="187" viewBox="0 0 164 187" fill="none" xmlns="http://www.w3.org/2000/svg">
<path d="M40.8764 24.2649C40.1358 15.5129 47.0398 8 55.823 8H140.983C148.758 8 155.245 13.9414 155.925 21.6868L162.385 95.1868C162.461 96.0606 162.461 96.9394 162.385 97.8132L155.925 171.313C155.245 179.059 148.758 185 140.983 185H55.823C47.0398 185 40.1358 177.487 40.8764 168.735L46.8824 97.7649C46.9537 96.9231 46.9537 96.0769 46.8824 95.2351L40.8764 24.2649Z" fill="#6153BE"/>
<path d="M61.9521 8.05977C61.9521 3.60848 65.5606 0 70.0119 0H80.9502C85.4015 0 89.01 3.60848 89.01 8.05977V8.05977H61.9521V8.05977Z" fill="#6153BE"/>
<path d="M105.705 8.05977C105.705 3.60848 109.314 0 113.765 0H124.703C129.154 0 132.763 3.60848 132.763 8.05977V8.05977H105.705V8.05977Z" fill="#6153BE"/>
<rect x="70.0122" y="36.269" width="4.60558" height="29.3606" rx="2.30279" fill="#B161DE"/>
<rect x="57.9224" y="53.5398" width="5.18128" height="29.3606" rx="2.59064" transform="rotate(-90 57.9224 53.5398)" fill="#B161DE"/>
<rect x="137.901" y="38.5718" width="5.18128" height="29.3606" rx="2.59064" transform="rotate(70 137.901 38.5718)" fill="#B161DE"/>
<path d="M45.5451 94.9902H163.275L157.518 172.679H39.7881L45.5451 94.9902Z" fill="#564AA5"/>
<path d="M95.0544 109.958H80.0863L76.3442 145.939L86.419 141.334L80.0863 165.225L98.5086 127.229L86.419 132.698L95.0544 109.958Z" fill="#B161DE"/>
<path d="M74.5 104.743C74.8333 96.4094 70.8 81.9427 52 90.7427L5 182" stroke="#B161DE" stroke-width="10" stroke-linecap="round"/>
</svg>
