<svg width="126" height="80" viewBox="0 0 126 80" fill="none" xmlns="http://www.w3.org/2000/svg">
<rect x="122" width="80" height="122" rx="15" transform="rotate(90 122 0)" fill="url(#paint0_linear_240_217)"/>
<path d="M32 0L32 80L15 80C6.71573 80 6.1134e-07 73.2843 9.73457e-07 65L3.15903e-06 15C3.52114e-06 6.71573 6.71573 -1.10521e-06 15 -7.43093e-07L32 0Z" fill="url(#paint1_linear_240_217)"/>
<path d="M122.19 25.3967C124.294 25.3967 126 27.1023 126 29.2063L126 50.7936C126 52.8975 124.294 54.6031 122.19 54.6031V54.6031L122.19 25.3967V25.3967Z" fill="#4A456A"/>
<path d="M14.6094 48.4688L13.0625 27.75C13.0312 26.9688 13.1094 26.3281 13.2969 25.8281C13.5156 25.3281 13.8125 24.9531 14.1875 24.7031C14.5938 24.4219 15.0312 24.2812 15.5 24.2812C16 24.2812 16.4375 24.4219 16.8125 24.7031C17.1875 24.9531 17.4844 25.3281 17.7031 25.8281C17.9219 26.3281 18 26.9688 17.9375 27.75L16.3906 48.4688H14.6094ZM15.5 57.4688C14.9375 57.4688 14.4219 57.3438 13.9531 57.0938C13.5156 56.8438 13.1719 56.5 12.9219 56.0625C12.6719 55.625 12.5469 55.1406 12.5469 54.6094C12.5469 54.0469 12.6719 53.5625 12.9219 53.1562C13.1719 52.7188 13.5156 52.375 13.9531 52.125C14.4219 51.875 14.9375 51.75 15.5 51.75C16.0625 51.75 16.5625 51.875 17 52.125C17.4375 52.375 17.7812 52.7188 18.0312 53.1562C18.3125 53.5625 18.4531 54.0469 18.4531 54.6094C18.4531 55.4219 18.1719 56.1094 17.6094 56.6719C17.0469 57.2031 16.3438 57.4688 15.5 57.4688Z" fill="white"/>
<defs>
<linearGradient id="paint0_linear_240_217" x1="202" y1="40.7329" x2="122" y2="42.3434" gradientUnits="userSpaceOnUse">
<stop stop-color="#6E65AA"/>
<stop offset="0.520178" stop-color="#B1A8EA"/>
<stop offset="1" stop-color="#6E65AA"/>
</linearGradient>
<linearGradient id="paint1_linear_240_217" x1="32" y1="40" x2="2.06624e-06" y2="40" gradientUnits="userSpaceOnUse">
<stop stop-color="#F2B34A"/>
<stop offset="1" stop-color="#ED7650"/>
</linearGradient>
</defs>
</svg>
