<svg width="542" height="319" viewBox="0 0 542 319" fill="none" xmlns="http://www.w3.org/2000/svg">
<rect x="291" y="157" width="99" height="16" fill="#879CE8"/>
<rect x="377.464" y="61.4683" width="190.062" height="17" rx="8.5" transform="rotate(30 377.464 61.4683)" fill="#879CE8"/>
<rect x="5.41797" y="70.5142" width="203.972" height="17" rx="8.5" transform="rotate(30 5.41797 70.5142)" fill="#879CE8"/>
<mask id="path-4-inside-1_400_212" fill="white">
<path d="M542 157C542 169.344 539.569 181.568 534.845 192.972C530.121 204.377 523.197 214.739 514.468 223.468C505.739 232.197 495.377 239.121 483.972 243.845C472.568 248.569 460.344 251 448 251C435.656 251 423.432 248.569 412.028 243.845C400.623 239.121 390.261 232.197 381.532 223.468C372.803 214.739 365.879 204.377 361.155 192.972C356.431 181.568 354 169.344 354 157L448 157H542Z"/>
</mask>
<path d="M542 157C542 169.344 539.569 181.568 534.845 192.972C530.121 204.377 523.197 214.739 514.468 223.468C505.739 232.197 495.377 239.121 483.972 243.845C472.568 248.569 460.344 251 448 251C435.656 251 423.432 248.569 412.028 243.845C400.623 239.121 390.261 232.197 381.532 223.468C372.803 214.739 365.879 204.377 361.155 192.972C356.431 181.568 354 169.344 354 157L448 157H542Z" fill="#6153BE" stroke="#879CE8" stroke-width="20" mask="url(#path-4-inside-1_400_212)"/>
<mask id="path-5-inside-2_400_212" fill="white">
<path d="M330 157C330 169.344 327.569 181.568 322.845 192.972C318.121 204.377 311.197 214.739 302.468 223.468C293.739 232.197 283.377 239.121 271.972 243.845C260.568 248.569 248.344 251 236 251C223.656 251 211.432 248.569 200.028 243.845C188.623 239.121 178.261 232.197 169.532 223.468C160.803 214.739 153.879 204.377 149.155 192.972C144.431 181.568 142 169.344 142 157L236 157H330Z"/>
</mask>
<path d="M330 157C330 169.344 327.569 181.568 322.845 192.972C318.121 204.377 311.197 214.739 302.468 223.468C293.739 232.197 283.377 239.121 271.972 243.845C260.568 248.569 248.344 251 236 251C223.656 251 211.432 248.569 200.028 243.845C188.623 239.121 178.261 232.197 169.532 223.468C160.803 214.739 153.879 204.377 149.155 192.972C144.431 181.568 142 169.344 142 157L236 157H330Z" fill="#6153BE" stroke="#879CE8" stroke-width="20" mask="url(#path-5-inside-2_400_212)"/>
<path d="M520.871 177.794L500.596 167.559L470.135 211.63L487.031 212.551L461.593 239.183L513.361 202.539L493.126 201.36L520.871 177.794Z" fill="#B161DE"/>
<path d="M300.346 177.794L280.072 167.559L249.61 211.63L266.507 212.551L241.068 239.183L292.836 202.539L272.601 201.36L300.346 177.794Z" fill="#B161DE"/>
</svg>
