<svg width="547" height="623" viewBox="0 0 547 623" fill="none" xmlns="http://www.w3.org/2000/svg">
<rect x="295" y="353" width="99" height="16" fill="#4A456A"/>
<rect x="381.464" y="257.468" width="190.062" height="17" rx="8.5" transform="rotate(30 381.464 257.468)" fill="#4A456A"/>
<rect x="9.41797" y="266.514" width="203.972" height="17" rx="8.5" transform="rotate(30 9.41797 266.514)" fill="#4A456A"/>
<mask id="path-4-inside-1_347_240" fill="white">
<path d="M546 353C546 365.344 543.569 377.568 538.845 388.972C534.121 400.377 527.197 410.739 518.468 419.468C509.739 428.197 499.377 435.121 487.972 439.845C476.568 444.569 464.344 447 452 447C439.656 447 427.432 444.569 416.028 439.845C404.623 435.121 394.261 428.197 385.532 419.468C376.803 410.739 369.879 400.377 365.155 388.972C360.431 377.568 358 365.344 358 353L452 353H546Z"/>
</mask>
<path d="M546 353C546 365.344 543.569 377.568 538.845 388.972C534.121 400.377 527.197 410.739 518.468 419.468C509.739 428.197 499.377 435.121 487.972 439.845C476.568 444.569 464.344 447 452 447C439.656 447 427.432 444.569 416.028 439.845C404.623 435.121 394.261 428.197 385.532 419.468C376.803 410.739 369.879 400.377 365.155 388.972C360.431 377.568 358 365.344 358 353L452 353H546Z" fill="#6153BE" stroke="#4A456A" stroke-width="20" mask="url(#path-4-inside-1_347_240)"/>
<mask id="path-5-inside-2_347_240" fill="white">
<path d="M334 353C334 365.344 331.569 377.568 326.845 388.972C322.121 400.377 315.197 410.739 306.468 419.468C297.739 428.197 287.377 435.121 275.972 439.845C264.568 444.569 252.344 447 240 447C227.656 447 215.432 444.569 204.028 439.845C192.623 435.121 182.261 428.197 173.532 419.468C164.803 410.739 157.879 400.377 153.155 388.972C148.431 377.568 146 365.344 146 353L240 353H334Z"/>
</mask>
<path d="M334 353C334 365.344 331.569 377.568 326.845 388.972C322.121 400.377 315.197 410.739 306.468 419.468C297.739 428.197 287.377 435.121 275.972 439.845C264.568 444.569 252.344 447 240 447C227.656 447 215.432 444.569 204.028 439.845C192.623 435.121 182.261 428.197 173.532 419.468C164.803 410.739 157.879 400.377 153.155 388.972C148.431 377.568 146 365.344 146 353L240 353H334Z" fill="#6153BE" stroke="#4A456A" stroke-width="20" mask="url(#path-5-inside-2_347_240)"/>
<path d="M524.871 373.794L504.596 363.559L474.135 407.63L491.031 408.551L465.593 435.183L517.361 398.539L497.126 397.36L524.871 373.794Z" fill="#B161DE"/>
<path d="M304.346 373.794L284.072 363.559L253.61 407.63L270.507 408.551L245.068 435.183L296.836 398.539L276.601 397.36L304.346 373.794Z" fill="#B161DE"/>
</svg>
