<svg width="524" height="424" viewBox="0 0 524 424" fill="none" xmlns="http://www.w3.org/2000/svg">
<rect x="411.285" width="146.105" height="395.598" rx="73.0524" transform="rotate(40 411.285 0)" fill="#9487E8"/>
<rect x="236.424" y="47.565" width="146.105" height="367.81" rx="73.0524" transform="rotate(40 236.424 47.565)" fill="#9487E8"/>
<rect x="151.201" y="121.467" width="169.889" height="260.78" rx="15" fill="url(#paint0_linear_88_407)"/>
<path d="M184.33 119.575C184.33 114.052 188.807 109.575 194.33 109.575H214.254C219.777 109.575 224.254 114.052 224.254 119.575V121.467H184.33V119.575Z" fill="#4A456A"/>
<path d="M248.888 119.575C248.888 114.052 253.365 109.575 258.888 109.575H278.812C284.335 109.575 288.812 114.052 288.812 119.575V121.467H248.888V119.575Z" fill="#4A456A"/>
<rect x="196.222" y="163.09" width="6.79557" height="43.3218" rx="3.39779" fill="#4A456A"/>
<rect x="178.384" y="188.573" width="7.64502" height="43.3218" rx="3.82251" transform="rotate(-90 178.384 188.573)" fill="#4A456A"/>
<rect x="255.684" y="186.874" width="7.64502" height="43.3218" rx="3.82251" transform="rotate(-90 255.684 186.874)" fill="#4A456A"/>
<rect x="149.502" y="227.648" width="173.287" height="135.911" fill="url(#paint1_linear_88_407)"/>
<path d="M227.652 204.713H239.969M239.969 204.713H266.726C266.018 207.686 262.819 213.887 255.683 214.906C248.548 215.925 242.234 208.535 239.969 204.713Z" stroke="#4A456A" stroke-width="8" stroke-linecap="round" stroke-linejoin="round"/>
<path d="M247.614 254.83H225.528L220.007 307.92L234.872 301.125L225.528 336.377L252.71 280.313L234.872 288.383L247.614 254.83Z" fill="#4A456A"/>
<defs>
<linearGradient id="paint0_linear_88_407" x1="321.091" y1="208.535" x2="151.201" y2="211.933" gradientUnits="userSpaceOnUse">
<stop stop-color="#6E65AA"/>
<stop offset="0.520178" stop-color="#B1A8EA"/>
<stop offset="1" stop-color="#6E65AA"/>
</linearGradient>
<linearGradient id="paint1_linear_88_407" x1="149.502" y1="295.603" x2="322.79" y2="295.603" gradientUnits="userSpaceOnUse">
<stop stop-color="#D18E40"/>
<stop offset="0.520833" stop-color="#F2B34A"/>
<stop offset="1" stop-color="#D18E40"/>
</linearGradient>
</defs>
</svg>
