<svg width="165" height="210" viewBox="0 0 165 210" fill="none" xmlns="http://www.w3.org/2000/svg">
<mask id="path-1-inside-1_15_2" fill="white">
<path fill-rule="evenodd" clip-rule="evenodd" d="M146.913 12.0667C141.788 8.47819 134.725 9.72371 131.136 14.8487L30.1904 159.014C23.2629 158.728 16.339 161.868 12.067 167.969C5.4026 177.487 7.7157 190.605 17.2335 197.27C26.7513 203.934 39.8695 201.621 46.5339 192.103C50.8062 186.002 51.3891 178.421 48.7498 172.009L149.695 27.8439C153.284 22.7189 152.038 15.6553 146.913 12.0667Z"/>
</mask>
<path fill-rule="evenodd" clip-rule="evenodd" d="M146.913 12.0667C141.788 8.47819 134.725 9.72371 131.136 14.8487L30.1904 159.014C23.2629 158.728 16.339 161.868 12.067 167.969C5.4026 177.487 7.7157 190.605 17.2335 197.27C26.7513 203.934 39.8695 201.621 46.5339 192.103C50.8062 186.002 51.3891 178.421 48.7498 172.009L149.695 27.8439C153.284 22.7189 152.038 15.6553 146.913 12.0667Z" fill="url(#paint0_linear_15_2)"/>
<path d="M30.1904 159.014L29.9836 164.01L32.717 164.123L34.2862 161.882L30.1904 159.014ZM48.7498 172.009L44.6541 169.141L43.0848 171.382L44.1262 173.912L48.7498 172.009ZM135.232 17.7166C137.237 14.8536 141.183 14.1578 144.046 16.1625L149.781 7.97097C142.394 2.79855 132.213 4.59381 127.041 11.9808L135.232 17.7166ZM34.2862 161.882L135.232 17.7166L127.041 11.9808L26.0946 156.146L34.2862 161.882ZM16.1628 170.837C19.4164 166.19 24.6872 163.791 29.9836 164.01L30.3972 154.019C21.8385 153.664 13.2616 157.546 7.97125 165.101L16.1628 170.837ZM20.1014 193.174C12.8456 188.093 11.0822 178.093 16.1628 170.837L7.97125 165.101C-0.277052 176.881 2.58579 193.117 14.3656 201.365L20.1014 193.174ZM42.4382 189.235C37.3576 196.491 27.3571 198.254 20.1014 193.174L14.3656 201.365C26.1454 209.614 42.3814 206.751 50.6297 194.971L42.4382 189.235ZM44.1262 173.912C46.1441 178.814 45.692 184.588 42.4382 189.235L50.6297 194.971C55.9203 187.415 56.6342 178.027 53.3735 170.106L44.1262 173.912ZM145.6 24.976L44.6541 169.141L52.8456 174.877L153.791 30.7118L145.6 24.976ZM144.046 16.1625C146.908 18.1671 147.604 22.1131 145.6 24.976L153.791 30.7118C158.964 23.3248 157.168 13.1434 149.781 7.97097L144.046 16.1625Z" fill="white" mask="url(#path-1-inside-1_15_2)"/>
<path d="M73.3499 117.127C74.4809 117.919 76.0398 117.644 76.8317 116.513C77.6237 115.382 77.3488 113.823 76.2178 113.031L73.3499 117.127ZM64.0703 110.63L73.3499 117.127L76.2178 113.031L66.9382 106.534L64.0703 110.63Z" fill="white"/>
<path d="M88.8204 95.033C89.9514 95.825 91.5103 95.5501 92.3022 94.4191C93.0942 93.2881 92.8193 91.7292 91.6883 90.9373L88.8204 95.033ZM79.5409 88.5354L88.8204 95.033L91.6883 90.9373L82.4087 84.4397L79.5409 88.5354Z" fill="white"/>
<path d="M57.8794 139.221C59.0104 140.013 60.5692 139.738 61.3612 138.607C62.1531 137.476 61.8783 135.918 60.7472 135.126L57.8794 139.221ZM48.5998 132.724L57.8794 139.221L60.7472 135.126L51.4677 128.628L48.5998 132.724Z" fill="white"/>
<path d="M42.4088 161.316C43.5399 162.108 45.0987 161.833 45.8907 160.702C46.6826 159.571 46.4077 158.012 45.2767 157.22L42.4088 161.316ZM33.1293 154.818L42.4088 161.316L45.2767 157.22L35.9972 150.722L33.1293 154.818Z" fill="white"/>
<defs>
<linearGradient id="paint0_linear_15_2" x1="146.914" y1="12.067" x2="17.2335" y2="197.27" gradientUnits="userSpaceOnUse">
<stop stop-color="#F96738" stop-opacity="0.64"/>
<stop offset="1" stop-color="#B1A8EA"/>
</linearGradient>
</defs>
</svg>
